<svg width="213" height="105" viewBox="0 0 213 105" fill="none" xmlns="http://www.w3.org/2000/svg">
<ellipse cx="117" cy="51" rx="96" ry="51" fill="#003366"/>
<path d="M7.24296 99.6022C22.5494 88.6145 29.2998 76.8401 31.4412 69.9892C31.9442 68.3797 33.5169 67.2291 35.1802 67.507L82.1659 75.3587C84.5887 75.7636 85.4957 78.7289 83.6258 80.3217C59.4237 100.937 27.6768 105.446 8.60541 104.967C5.76026 104.895 4.93094 101.262 7.24296 99.6022Z" fill="#003366"/>
<path d="M76.28 29.06V43H74.46V36.68H67.36V43H65.54V29.06H67.36V35.18H74.46V29.06H76.28ZM84.1677 43.18C83.141 43.18 82.2077 42.9467 81.3677 42.48C80.541 42.0133 79.8877 41.3533 79.4077 40.5C78.941 39.6333 78.7077 38.6333 78.7077 37.5C78.7077 36.38 78.9477 35.3933 79.4277 34.54C79.921 33.6733 80.5877 33.0133 81.4277 32.56C82.2677 32.0933 83.2077 31.86 84.2477 31.86C85.2877 31.86 86.2277 32.0933 87.0677 32.56C87.9077 33.0133 88.5677 33.6667 89.0477 34.52C89.541 35.3733 89.7877 36.3667 89.7877 37.5C89.7877 38.6333 89.5343 39.6333 89.0277 40.5C88.5343 41.3533 87.861 42.0133 87.0077 42.48C86.1543 42.9467 85.2077 43.18 84.1677 43.18ZM84.1677 41.58C84.821 41.58 85.4343 41.4267 86.0077 41.12C86.581 40.8133 87.041 40.3533 87.3877 39.74C87.7477 39.1267 87.9277 38.38 87.9277 37.5C87.9277 36.62 87.7543 35.8733 87.4077 35.26C87.061 34.6467 86.6077 34.1933 86.0477 33.9C85.4877 33.5933 84.881 33.44 84.2277 33.44C83.561 33.44 82.9477 33.5933 82.3877 33.9C81.841 34.1933 81.401 34.6467 81.0677 35.26C80.7343 35.8733 80.5677 36.62 80.5677 37.5C80.5677 38.3933 80.7277 39.1467 81.0477 39.76C81.381 40.3733 81.821 40.8333 82.3677 41.14C82.9143 41.4333 83.5143 41.58 84.1677 41.58ZM106.781 32.04L103.361 43H101.481L98.8406 34.3L96.2006 43H94.3206L90.8806 32.04H92.7406L95.2606 41.24L97.9806 32.04H99.8406L102.501 41.26L104.981 32.04H106.781ZM127.099 31.84C127.952 31.84 128.712 32.02 129.379 32.38C130.046 32.7267 130.572 33.2533 130.959 33.96C131.346 34.6667 131.539 35.5267 131.539 36.54V43H129.739V36.8C129.739 35.7067 129.466 34.8733 128.919 34.3C128.386 33.7133 127.659 33.42 126.739 33.42C125.792 33.42 125.039 33.7267 124.479 34.34C123.919 34.94 123.639 35.8133 123.639 36.96V43H121.839V36.8C121.839 35.7067 121.566 34.8733 121.019 34.3C120.486 33.7133 119.759 33.42 118.839 33.42C117.892 33.42 117.139 33.7267 116.579 34.34C116.019 34.94 115.739 35.8133 115.739 36.96V43H113.919V32.04H115.739V33.62C116.099 33.0467 116.579 32.6067 117.179 32.3C117.792 31.9933 118.466 31.84 119.199 31.84C120.119 31.84 120.932 32.0467 121.639 32.46C122.346 32.8733 122.872 33.48 123.219 34.28C123.526 33.5067 124.032 32.9067 124.739 32.48C125.446 32.0533 126.232 31.84 127.099 31.84ZM133.844 37.48C133.844 36.36 134.071 35.38 134.524 34.54C134.978 33.6867 135.598 33.0267 136.384 32.56C137.184 32.0933 138.071 31.86 139.044 31.86C140.004 31.86 140.838 32.0667 141.544 32.48C142.251 32.8933 142.778 33.4133 143.124 34.04V32.04H144.964V43H143.124V40.96C142.764 41.6 142.224 42.1333 141.504 42.56C140.798 42.9733 139.971 43.18 139.024 43.18C138.051 43.18 137.171 42.94 136.384 42.46C135.598 41.98 134.978 41.3067 134.524 40.44C134.071 39.5733 133.844 38.5867 133.844 37.48ZM143.124 37.5C143.124 36.6733 142.958 35.9533 142.624 35.34C142.291 34.7267 141.838 34.26 141.264 33.94C140.704 33.6067 140.084 33.44 139.404 33.44C138.724 33.44 138.104 33.6 137.544 33.92C136.984 34.24 136.538 34.7067 136.204 35.32C135.871 35.9333 135.704 36.6533 135.704 37.48C135.704 38.32 135.871 39.0533 136.204 39.68C136.538 40.2933 136.984 40.7667 137.544 41.1C138.104 41.42 138.724 41.58 139.404 41.58C140.084 41.58 140.704 41.42 141.264 41.1C141.838 40.7667 142.291 40.2933 142.624 39.68C142.958 39.0533 143.124 38.3267 143.124 37.5ZM157.48 32.04L150.88 48.16H149L151.16 42.88L146.74 32.04H148.76L152.2 40.92L155.6 32.04H157.48ZM166.462 29.06V43H164.642V29.06H166.462ZM70.98 61.84C71.8067 61.84 72.5533 62.02 73.22 62.38C73.8867 62.7267 74.4067 63.2533 74.78 63.96C75.1667 64.6667 75.36 65.5267 75.36 66.54V73H73.56V66.8C73.56 65.7067 73.2867 64.8733 72.74 64.3C72.1933 63.7133 71.4467 63.42 70.5 63.42C69.54 63.42 68.7733 63.72 68.2 64.32C67.64 64.92 67.36 65.7933 67.36 66.94V73H65.54V58.2H67.36V63.6C67.72 63.04 68.2133 62.6067 68.84 62.3C69.48 61.9933 70.1933 61.84 70.98 61.84ZM88.333 67.1C88.333 67.4467 88.313 67.8133 88.273 68.2H79.513C79.5796 69.28 79.9463 70.1267 80.613 70.74C81.293 71.34 82.113 71.64 83.073 71.64C83.8596 71.64 84.513 71.46 85.033 71.1C85.5663 70.7267 85.9396 70.2333 86.153 69.62H88.113C87.8196 70.6733 87.233 71.5333 86.353 72.2C85.473 72.8533 84.3796 73.18 83.073 73.18C82.033 73.18 81.0996 72.9467 80.273 72.48C79.4596 72.0133 78.8196 71.3533 78.353 70.5C77.8863 69.6333 77.653 68.6333 77.653 67.5C77.653 66.3667 77.8796 65.3733 78.333 64.52C78.7863 63.6667 79.4196 63.0133 80.233 62.56C81.0596 62.0933 82.0063 61.86 83.073 61.86C84.113 61.86 85.033 62.0867 85.833 62.54C86.633 62.9933 87.2463 63.62 87.673 64.42C88.113 65.2067 88.333 66.1 88.333 67.1ZM86.453 66.72C86.453 66.0267 86.2996 65.4333 85.993 64.94C85.6863 64.4333 85.2663 64.0533 84.733 63.8C84.213 63.5333 83.633 63.4 82.993 63.4C82.073 63.4 81.2863 63.6933 80.633 64.28C79.993 64.8667 79.6263 65.68 79.533 66.72H86.453ZM92.5553 58.2V73H90.7353V58.2H92.5553ZM97.4772 64.06C97.8372 63.4333 98.3705 62.9133 99.0772 62.5C99.7972 62.0733 100.631 61.86 101.577 61.86C102.551 61.86 103.431 62.0933 104.217 62.56C105.017 63.0267 105.644 63.6867 106.097 64.54C106.551 65.38 106.777 66.36 106.777 67.48C106.777 68.5867 106.551 69.5733 106.097 70.44C105.644 71.3067 105.017 71.98 104.217 72.46C103.431 72.94 102.551 73.18 101.577 73.18C100.644 73.18 99.8172 72.9733 99.0972 72.56C98.3905 72.1333 97.8505 71.6067 97.4772 70.98V78.2H95.6572V62.04H97.4772V64.06ZM104.917 67.48C104.917 66.6533 104.751 65.9333 104.417 65.32C104.084 64.7067 103.631 64.24 103.057 63.92C102.497 63.6 101.877 63.44 101.197 63.44C100.531 63.44 99.9105 63.6067 99.3372 63.94C98.7772 64.26 98.3239 64.7333 97.9772 65.36C97.6439 65.9733 97.4772 66.6867 97.4772 67.5C97.4772 68.3267 97.6439 69.0533 97.9772 69.68C98.3239 70.2933 98.7772 70.7667 99.3372 71.1C99.9105 71.42 100.531 71.58 101.197 71.58C101.877 71.58 102.497 71.42 103.057 71.1C103.631 70.7667 104.084 70.2933 104.417 69.68C104.751 69.0533 104.917 68.32 104.917 67.48ZM123.945 62.04L117.345 78.16H115.465L117.625 72.88L113.205 62.04H115.225L118.665 70.92L122.065 62.04H123.945ZM130.554 73.18C129.528 73.18 128.594 72.9467 127.754 72.48C126.928 72.0133 126.274 71.3533 125.794 70.5C125.328 69.6333 125.094 68.6333 125.094 67.5C125.094 66.38 125.334 65.3933 125.814 64.54C126.308 63.6733 126.974 63.0133 127.814 62.56C128.654 62.0933 129.594 61.86 130.634 61.86C131.674 61.86 132.614 62.0933 133.454 62.56C134.294 63.0133 134.954 63.6667 135.434 64.52C135.928 65.3733 136.174 66.3667 136.174 67.5C136.174 68.6333 135.921 69.6333 135.414 70.5C134.921 71.3533 134.248 72.0133 133.394 72.48C132.541 72.9467 131.594 73.18 130.554 73.18ZM130.554 71.58C131.208 71.58 131.821 71.4267 132.394 71.12C132.968 70.8133 133.428 70.3533 133.774 69.74C134.134 69.1267 134.314 68.38 134.314 67.5C134.314 66.62 134.141 65.8733 133.794 65.26C133.448 64.6467 132.994 64.1933 132.434 63.9C131.874 63.5933 131.268 63.44 130.614 63.44C129.948 63.44 129.334 63.5933 128.774 63.9C128.228 64.1933 127.788 64.6467 127.454 65.26C127.121 65.8733 126.954 66.62 126.954 67.5C126.954 68.3933 127.114 69.1467 127.434 69.76C127.768 70.3733 128.208 70.8333 128.754 71.14C129.301 71.4333 129.901 71.58 130.554 71.58ZM148.287 62.04V73H146.467V71.38C146.121 71.94 145.634 72.38 145.007 72.7C144.394 73.0067 143.714 73.16 142.967 73.16C142.114 73.16 141.347 72.9867 140.667 72.64C139.987 72.28 139.447 71.7467 139.047 71.04C138.661 70.3333 138.467 69.4733 138.467 68.46V62.04H140.267V68.22C140.267 69.3 140.541 70.1333 141.087 70.72C141.634 71.2933 142.381 71.58 143.327 71.58C144.301 71.58 145.067 71.28 145.627 70.68C146.187 70.08 146.467 69.2067 146.467 68.06V62.04H148.287ZM154.92 58.88C156.24 58.88 157.307 59.2533 158.12 60C158.934 60.7467 159.34 61.7467 159.34 63C159.34 64.4 158.907 65.44 158.04 66.12C157.174 66.7867 156 67.12 154.52 67.12L154.46 69.02H152.88L152.8 65.86H153.38C154.7 65.86 155.734 65.66 156.48 65.26C157.227 64.86 157.6 64.1067 157.6 63C157.6 62.2 157.36 61.5667 156.88 61.1C156.4 60.6333 155.754 60.4 154.94 60.4C154.114 60.4 153.46 60.6267 152.98 61.08C152.514 61.52 152.28 62.1267 152.28 62.9H150.56C150.56 62.1 150.74 61.4 151.1 60.8C151.46 60.1867 151.967 59.7133 152.62 59.38C153.287 59.0467 154.054 58.88 154.92 58.88ZM153.66 73.12C153.314 73.12 153.02 73 152.78 72.76C152.54 72.52 152.42 72.2267 152.42 71.88C152.42 71.5333 152.54 71.24 152.78 71C153.02 70.76 153.314 70.64 153.66 70.64C153.994 70.64 154.274 70.76 154.5 71C154.74 71.24 154.86 71.5333 154.86 71.88C154.86 72.2267 154.74 72.52 154.5 72.76C154.274 73 153.994 73.12 153.66 73.12Z" fill="white"/>
</svg>
