<svg width="22" height="27" viewBox="0 0 22 27" fill="none" xmlns="http://www.w3.org/2000/svg">
<path d="M14.2274 8.33334H21.0399C20.6763 7.36967 20.1113 6.49467 19.3827 5.76669L15.7535 2.13544C15.0247 1.40765 14.1494 0.843054 13.1858 0.479187V7.29169C13.1858 7.86693 13.6521 8.33334 14.2274 8.33334Z" fill="#5E5E5E"/>
<path d="M21.4941 10.4166H14.2274C12.5016 10.4166 11.1024 9.01753 11.1024 7.29165V0.025C10.9347 0.0135254 10.767 0 10.5972 0H5.89409C3.01904 0.0034668 0.689209 2.3333 0.685791 5.20835V19.7917C0.689209 22.6667 3.01904 24.9966 5.89409 25H16.3107C19.1858 24.9966 21.5156 22.6667 21.5191 19.7917V10.9219C21.5191 10.7521 21.5056 10.5844 21.4941 10.4166Z" fill="#5E5E5E"/>
<path d="M11.354 17.094L13.846 21H12.04L10.374 18.382L8.806 21H7.14L9.632 17.206L7.14 13.286H8.946L10.612 15.904L12.18 13.286H13.846L11.354 17.094Z" fill="#D9D9D9"/>
</svg>
