<svg width="28" height="25" viewBox="0 0 28 25" fill="none" xmlns="http://www.w3.org/2000/svg">
<path d="M27.2205 5.16138L17.6545 14.7273C16.5879 15.7912 15.1429 16.3887 13.6364 16.3887C12.1298 16.3887 10.6848 15.7912 9.61818 14.7273L0.0522727 5.16138C0.0363636 5.34092 0 5.50342 0 5.68183V19.3182C0.00180438 20.8246 0.601002 22.2687 1.66616 23.3339C2.73132 24.399 4.17546 24.9982 5.68182 25H21.5909C23.0973 24.9982 24.5414 24.399 25.6066 23.3339C26.6717 22.2687 27.2709 20.8246 27.2727 19.3182V5.68183C27.2727 5.50342 27.2364 5.34092 27.2205 5.16138Z" fill="#5E5E5E"/>
<path d="M16.0476 13.1205L26.4272 2.73977C25.9243 1.90604 25.2152 1.21595 24.368 0.736057C23.5209 0.256163 22.5644 0.00265985 21.5908 0H5.6817C4.70809 0.00265985 3.75159 0.256163 2.90446 0.736057C2.05733 1.21595 1.34815 1.90604 0.845337 2.73977L11.2249 13.1205C11.8653 13.7583 12.7324 14.1164 13.6362 14.1164C14.5401 14.1164 15.4072 13.7583 16.0476 13.1205Z" fill="#5E5E5E"/>
</svg>
