<svg width="20" height="20" viewBox="0 0 20 20" fill="none" xmlns="http://www.w3.org/2000/svg">
<g clip-path="url(#clip0_556_384)">
<path d="M15.8333 0.832031H4.16667C3.062 0.833354 2.00296 1.27277 1.22185 2.05388C0.440735 2.835 0.00132321 3.89404 0 4.9987L0 14.9987C0.00132321 16.1034 0.440735 17.1624 1.22185 17.9435C2.00296 18.7246 3.062 19.164 4.16667 19.1654H15.8333C16.938 19.164 17.997 18.7246 18.7782 17.9435C19.5593 17.1624 19.9987 16.1034 20 14.9987V4.9987C19.9987 3.89404 19.5593 2.835 18.7782 2.05388C17.997 1.27277 16.938 0.833354 15.8333 0.832031ZM4.16667 2.4987H15.8333C16.3323 2.49968 16.8196 2.64996 17.2325 2.9302C17.6453 3.21044 17.9649 3.60782 18.15 4.0712L11.7683 10.4537C11.2987 10.9215 10.6628 11.1841 10 11.1841C9.33715 11.1841 8.70131 10.9215 8.23167 10.4537L1.85 4.0712C2.03512 3.60782 2.35468 3.21044 2.76754 2.9302C3.1804 2.64996 3.66768 2.49968 4.16667 2.4987ZM15.8333 17.4987H4.16667C3.50363 17.4987 2.86774 17.2353 2.3989 16.7665C1.93006 16.2976 1.66667 15.6617 1.66667 14.9987V6.2487L7.05333 11.632C7.83552 12.4122 8.89521 12.8504 10 12.8504C11.1048 12.8504 12.1645 12.4122 12.9467 11.632L18.3333 6.2487V14.9987C18.3333 15.6617 18.0699 16.2976 17.6011 16.7665C17.1323 17.2353 16.4964 17.4987 15.8333 17.4987Z" fill="white"/>
</g>
<defs>
<clipPath id="clip0_556_384">
<rect width="20" height="20" fill="white"/>
</clipPath>
</defs>
</svg>
