<svg width="23" height="25" viewBox="0 0 23 25" fill="none" xmlns="http://www.w3.org/2000/svg">
<path d="M6.87048 21.8751C7.27429 22.8036 7.94049 23.594 8.78726 24.1491C9.63403 24.7043 10.6245 25 11.637 25C12.6495 25 13.64 24.7043 14.4868 24.1491C15.3336 23.594 15.9998 22.8036 16.4036 21.8751H6.87048Z" fill="#5E5E5E"/>
<path d="M22.4617 13.0722L20.6534 7.11093C20.0743 5.02592 18.8153 3.19412 17.0763 1.90637C15.3372 0.618621 13.2178 -0.0512697 11.0546 0.00306272C8.89135 0.0573951 6.80826 0.832836 5.13605 2.20626C3.46385 3.57969 2.29839 5.47239 1.82471 7.58383L0.420581 13.3514C0.233954 14.1178 0.223842 14.9166 0.391009 15.6874C0.558176 16.4583 0.898254 17.1811 1.38558 17.8014C1.8729 18.4216 2.49474 18.9231 3.20417 19.2679C3.9136 19.6127 4.69208 19.7919 5.48087 19.7919H17.4774C18.2907 19.7919 19.0926 19.6015 19.8191 19.2359C20.5455 18.8702 21.1762 18.3396 21.6607 17.6864C22.1452 17.0333 22.47 16.2757 22.6091 15.4744C22.7482 14.6732 22.6977 13.8505 22.4617 13.0722Z" fill="#5E5E5E"/>
</svg>
